<svg width="600" height="600" viewBox="0 0 600 600" fill="none" xmlns="http://www.w3.org/2000/svg">
  <!-- Background -->
  <rect width="600" height="600" fill="url(#motor-gradient)"/>
  
  <!-- Electric Motor -->
  <g opacity="0.95">
    <!-- Motor Body -->
    <rect x="150" y="220" width="300" height="160" rx="20" fill="#1a1f2e" stroke="#10b981" stroke-width="4"/>
    
    <!-- Top Fins (Cooling) -->
    <g fill="#0f172a" stroke="#34d399" stroke-width="2">
      <rect x="150" y="200" width="300" height="15" rx="3"/>
      <line x1="170" y1="200" x2="170" y2="215"/>
      <line x1="200" y1="200" x2="200" y2="215"/>
      <line x1="230" y1="200" x2="230" y2="215"/>
      <line x1="260" y1="200" x2="260" y2="215"/>
      <line x1="290" y1="200" x2="290" y2="215"/>
      <line x1="320" y1="200" x2="320" y2="215"/>
      <line x1="350" y1="200" x2="350" y2="215"/>
      <line x1="380" y1="200" x2="380" y2="215"/>
      <line x1="410" y1="200" x2="410" y2="215"/>
      <line x1="430" y1="200" x2="430" y2="215"/>
    </g>
    
    <!-- Bottom Fins -->
    <g fill="#0f172a" stroke="#34d399" stroke-width="2">
      <rect x="150" y="385" width="300" height="15" rx="3"/>
      <line x1="170" y1="385" x2="170" y2="400"/>
      <line x1="200" y1="385" x2="200" y2="400"/>
      <line x1="230" y1="385" x2="230" y2="400"/>
      <line x1="260" y1="385" x2="260" y2="400"/>
      <line x1="290" y1="385" x2="290" y2="400"/>
      <line x1="320" y1="385" x2="320" y2="400"/>
      <line x1="350" y1="385" x2="350" y2="400"/>
      <line x1="380" y1="385" x2="380" y2="400"/>
      <line x1="410" y1="385" x2="410" y2="400"/>
      <line x1="430" y1="385" x2="430" y2="400"/>
    </g>
    
    <!-- Motor Shaft (Left) -->
    <rect x="80" y="280" width="70" height="40" fill="#1e293b" stroke="#10b981" stroke-width="3"/>
    <circle cx="80" cy="300" r="20" fill="#1a1f2e" stroke="#10b981" stroke-width="3"/>
    <circle cx="80" cy="300" r="10" fill="#0f172a"/>
    
    <!-- Motor Shaft (Right) -->
    <rect x="450" y="280" width="70" height="40" fill="#1e293b" stroke="#10b981" stroke-width="3"/>
    <circle cx="520" cy="300" r="20" fill="#1a1f2e" stroke="#10b981" stroke-width="3"/>
    <circle cx="520" cy="300" r="10" fill="#0f172a"/>
    
    <!-- Terminal Box -->
    <rect x="320" y="240" width="100" height="60" rx="8" fill="#0f172a" stroke="#10b981" stroke-width="2"/>
    <g fill="none" stroke="#34d399" stroke-width="2">
      <line x1="340" y1="260" x2="360" y2="260"/>
      <line x1="340" y1="280" x2="360" y2="280"/>
      <line x1="380" y1="260" x2="400" y2="260"/>
      <line x1="380" y1="280" x2="400" y2="280"/>
    </g>
    
    <!-- Mounting Feet -->
    <g fill="#1a1f2e" stroke="#10b981" stroke-width="2">
      <rect x="140" y="380" width="40" height="30" rx="5"/>
      <rect x="420" y="380" width="40" height="30" rx="5"/>
      <circle cx="160" cy="415" r="5" fill="#0f172a"/>
      <circle cx="440" cy="415" r="5" fill="#0f172a"/>
    </g>
    
    <!-- Name Plate -->
    <rect x="180" y="270" width="100" height="60" rx="5" fill="#0f172a" stroke="#34d399" stroke-width="2"/>
    <text x="230" y="295" font-family="Arial" font-size="12" fill="#10b981" text-anchor="middle" font-weight="bold">3-PHASE</text>
    <text x="230" y="315" font-family="Arial" font-size="10" fill="#34d399" text-anchor="middle">50Hz / 60Hz</text>
  </g>
  
  <!-- Power Lines Effect -->
  <g stroke="#10b981" stroke-width="2" opacity="0.4">
    <path d="M 100 150 Q 200 130 300 150" stroke-dasharray="5,5"/>
    <path d="M 300 150 Q 400 170 500 150" stroke-dasharray="5,5"/>
  </g>
  
  <defs>
    <linearGradient id="motor-gradient" x1="0%" y1="0%" x2="100%" y2="100%">
      <stop offset="0%" style="stop-color:#064e3b;stop-opacity:1" />
      <stop offset="100%" style="stop-color:#065f46;stop-opacity:1" />
    </linearGradient>
  </defs>
</svg>